<svg width="43" height="21" viewBox="0 0 43 21" fill="none" xmlns="http://www.w3.org/2000/svg">
<g clip-path="url(#clip0_350_129)">
<path d="M33.2258 9.27017C32.9912 9.27017 32.7618 9.34288 32.5667 9.47911C32.3717 9.61534 32.2196 9.80897 32.1298 10.0355C32.0401 10.2621 32.0166 10.5113 32.0623 10.7518C32.1081 10.9923 32.2211 11.2132 32.387 11.3866C32.5529 11.56 32.7643 11.6781 32.9944 11.7259C33.2245 11.7738 33.463 11.7492 33.6797 11.6554C33.8965 11.5615 34.0818 11.4026 34.2121 11.1987C34.3424 10.9949 34.412 10.7552 34.412 10.51C34.412 10.1811 34.287 9.8658 34.0646 9.6333C33.8421 9.40079 33.5404 9.27017 33.2258 9.27017ZM33.2258 9.27017C32.9912 9.27017 32.7618 9.34288 32.5667 9.47911C32.3717 9.61534 32.2196 9.80897 32.1298 10.0355C32.0401 10.2621 32.0166 10.5113 32.0623 10.7518C32.1081 10.9923 32.2211 11.2132 32.387 11.3866C32.5529 11.56 32.7643 11.6781 32.9944 11.7259C33.2245 11.7738 33.463 11.7492 33.6797 11.6554C33.8965 11.5615 34.0818 11.4026 34.2121 11.1987C34.3424 10.9949 34.412 10.7552 34.412 10.51C34.412 10.1811 34.287 9.8658 34.0646 9.6333C33.8421 9.40079 33.5404 9.27017 33.2258 9.27017ZM33.2258 9.27017C32.9912 9.27017 32.7618 9.34288 32.5667 9.47911C32.3717 9.61534 32.2196 9.80897 32.1298 10.0355C32.0401 10.2621 32.0166 10.5113 32.0623 10.7518C32.1081 10.9923 32.2211 11.2132 32.387 11.3866C32.5529 11.56 32.7643 11.6781 32.9944 11.7259C33.2245 11.7738 33.463 11.7492 33.6797 11.6554C33.8965 11.5615 34.0818 11.4026 34.2121 11.1987C34.3424 10.9949 34.412 10.7552 34.412 10.51C34.412 10.1811 34.287 9.8658 34.0646 9.6333C33.8421 9.40079 33.5404 9.27017 33.2258 9.27017Z" fill="black"/>
<path d="M33.43 0.5H9.56806C7.03045 0.5 4.59678 1.55357 2.80242 3.42893C1.00806 5.3043 0 7.84784 0 10.5C0 13.1522 1.00806 15.6957 2.80242 17.5711C4.59678 19.4464 7.03045 20.5 9.56806 20.5H33.43C34.6865 20.5 35.9307 20.2413 37.0916 19.7388C38.2524 19.2362 39.3072 18.4997 40.1957 17.5711C41.0841 16.6425 41.7889 15.5401 42.2698 14.3268C42.7506 13.1136 42.9981 11.8132 42.9981 10.5C42.9981 9.18678 42.7506 7.88642 42.2698 6.67317C41.7889 5.45991 41.0841 4.35752 40.1957 3.42893C39.3072 2.50035 38.2524 1.76375 37.0916 1.2612C35.9307 0.758658 34.6865 0.5 33.43 0.5ZM13.9792 4.46651L9.05885 9.60903C8.91473 9.75981 8.81023 9.94688 8.75544 10.1522C8.70065 10.3575 8.69743 10.5741 8.74609 10.781C8.79135 10.9799 8.88286 11.1639 9.01251 11.3169C9.14216 11.4699 9.30593 11.5871 9.4893 11.6581C9.67266 11.7291 9.86996 11.7516 10.0637 11.7238C10.2574 11.696 10.4416 11.6186 10.5998 11.4986C10.7028 11.4248 10.7942 11.3347 10.8706 11.2315L18.6269 3.11312H26.9611L14.7707 15.8478C13.8005 16.813 12.5879 17.4701 11.2741 17.7427C9.96037 18.0153 8.59953 17.8922 7.35015 17.3876C6.10078 16.883 5.01432 16.0177 4.21734 14.8926C3.42035 13.7675 2.94566 12.4289 2.84857 11.0327C2.75148 9.63652 3.03598 8.24023 3.66893 7.00652C4.30188 5.77281 5.25722 4.75246 6.42366 4.06436C7.59009 3.37626 8.91959 3.04873 10.2573 3.11993C11.5949 3.19113 12.8857 3.65813 13.9792 4.46651ZM27.4436 14.7496L24.4608 17.867L24.4417 17.8869H16.6988L22.7825 15.1123C22.8925 15.2236 23.0395 15.2858 23.1926 15.2857C23.2706 15.2866 23.3479 15.2703 23.4195 15.2379C23.5484 15.1844 23.6552 15.0854 23.7215 14.9581C23.7878 14.8309 23.8093 14.6833 23.7823 14.5412C23.7554 14.3991 23.6816 14.2713 23.5739 14.1801C23.4661 14.0889 23.3312 14.04 23.1926 14.042C23.1145 14.0414 23.0372 14.0571 22.965 14.0881C22.8928 14.119 22.8272 14.1647 22.772 14.2223C22.7169 14.28 22.6732 14.3486 22.6436 14.424C22.6139 14.4995 22.599 14.5803 22.5995 14.6619C22.5986 14.6765 22.5986 14.6911 22.5995 14.7057L16.5748 17.4583L28.3647 5.13624C29.4114 4.10023 30.7363 3.42354 32.1615 3.19691C33.5867 2.97029 35.0441 3.20458 36.3383 3.86836C37.6325 4.53213 38.7015 5.59365 39.4019 6.91052C40.1024 8.2274 40.4008 9.73665 40.2572 11.2358C40.1135 12.735 39.5347 14.1525 38.5983 15.298C37.6618 16.4436 36.4126 17.2624 35.0182 17.6448C33.6238 18.0272 32.1509 17.9548 30.797 17.4373C29.4431 16.9198 28.2729 15.9819 27.4436 14.7496Z" fill="black"/>
<path d="M34.4124 10.5C34.4146 10.7462 34.3468 10.9875 34.2176 11.1933C34.0883 11.3991 33.9035 11.5602 33.6864 11.6559C33.4694 11.7517 33.2301 11.7779 32.9988 11.7312C32.7675 11.6844 32.5548 11.5669 32.3875 11.3936C32.2203 11.2202 32.1061 10.9988 32.0596 10.7574C32.013 10.5161 32.0361 10.2657 32.126 10.0382C32.2159 9.8106 32.3685 9.61608 32.5643 9.47934C32.7602 9.34259 32.9906 9.26979 33.2261 9.27017C33.5391 9.27016 33.8394 9.39941 34.0616 9.62977C34.2838 9.86012 34.4098 10.1729 34.4124 10.5Z" fill="black"/>
</g>
<defs>
<clipPath id="clip0_350_129">
<rect width="43" height="20" fill="white" transform="translate(0 0.5)"/>
</clipPath>
</defs>
</svg>
